<svg width="200" height="64" viewBox="0 0 200 64" fill="none" xmlns="http://www.w3.org/2000/svg">
<g id="Group 4294">
<rect id="Rectangle 301" y="14.4844" width="200" height="22" fill="#FF8438"/>
<g id="Group 4">
<path id="Vector" d="M15 45.9908C15.8873 45.852 19.5519 45.1819 22.1533 41.8677C23.9777 39.543 24.3531 37.1058 24.4502 36.043C24.5605 37.0665 24.9831 39.721 27.0753 42.1949C29.4589 45.0117 32.4777 45.784 33.4411 45.9908C32.5906 46.1269 29.3066 46.75 26.8784 49.7212C25.0409 51.9726 24.676 54.3705 24.5815 55.3496C24.4581 54.4517 23.9305 51.4411 21.3002 48.9359C18.7932 46.5484 15.9266 46.0981 15 45.9908Z" fill="#8F4B9D"/>
<path id="Vector_2" d="M183.516 44.681C182.098 43.6888 181.421 42.4454 181.153 41.8668C177.906 35.0787 174.675 27.9425 171.506 20.4659C168.653 13.7302 166.036 7.15677 163.631 0.766602H162.581C156.588 14.5967 150.592 28.4294 144.599 42.2595C144.416 42.7752 144.001 43.6993 143.09 44.4847C141.339 45.9952 139.191 46.215 138.769 46.2308H150.44C149.855 46.2308 148.39 46.003 147.093 45.27C146.752 45.0763 146.311 44.8198 146.043 44.2883C145.579 43.3668 146.022 42.3799 146.109 42.194C147.881 38.0709 149.653 33.9478 151.425 29.8247H164.287C165.681 33.5787 167.183 36.5238 168.356 38.5945C170.682 42.6993 171.905 43.7124 172.622 44.2229C175.292 46.1234 178.282 46.2831 179.907 46.2308H186.863C186.228 46.1653 184.881 45.6365 183.516 44.681ZM151.753 28.3849L157.528 14.9684H158.184L163.697 28.3849H151.753Z" fill="#8F4B9D"/>
<path id="Vector_3" d="M101.328 1.20432V3.5185C98.0598 1.09437 94.4608 0.418969 93.3661 0.329963C90.7437 0.120535 87.4072 0.225249 83.7846 1.31951C71.5518 5.01329 66.3805 16.8591 65.4512 19.0921C65.2307 17.3198 64.6164 14.3459 62.6502 11.3249C59.4897 6.47143 54.8118 4.55517 52.0633 3.47138C49.7165 2.54728 47.165 1.90329 40.3477 1.42161C35.8614 1.10485 29.7162 0.869239 22.3135 1.20432C23.0984 1.43731 24.3217 1.93209 25.3769 3.03682C25.6578 3.33002 25.8888 3.62845 26.0778 3.90856V25.6367L37.0165 38.6395V2.33785C40.1324 2.17031 45.9784 2.40068 50.1654 6.33269C54.8092 10.6914 54.9247 17.1496 54.7908 26.2467C54.7199 30.9719 54.0505 33.8175 53.1186 36.1945C52.2917 38.3071 51.1419 41.0427 48.3069 43.1763C46.1149 44.8255 43.86 45.3936 42.5317 45.6187C45.4534 45.8543 49.4514 45.6946 53.6463 43.9747C55.0717 43.3909 57.0195 42.5689 59.0093 40.7652C61.9257 38.1238 63.1621 34.9248 63.7055 32.9667C63.947 34.0295 65.6901 41.1815 72.3682 44.3255C75.2164 45.6659 77.9019 45.7784 79.5452 45.6973C81.7397 45.7444 89.5598 45.6449 96.784 39.9485C103.622 34.5557 105.588 27.5713 106.129 25.532C106.838 22.8618 109.6 12.4297 103.607 5.60754C103.612 5.60754 103.614 5.61016 103.62 5.61278C103.599 5.52115 103.286 4.04207 104.223 3.12321C104.265 3.08132 104.885 2.48969 105.623 2.42424C105.751 2.41377 106.323 2.37974 106.323 2.37974L113.805 2.41639C113.737 2.40592 114.527 2.41115 114.921 2.61796C115.506 2.92425 115.574 3.85359 115.598 4.16773C115.706 5.57037 115.838 19.9073 115.932 39.7766C115.941 41.5114 115.975 43.414 114.81 44.6999C113.682 45.9486 112.238 46.1763 111.836 46.2261H130.387C130.088 46.2104 128.807 46.1057 127.762 45.048C126.665 43.9381 126.618 42.5794 126.615 42.2967C126.502 29.587 126.389 16.8748 126.277 4.16511C126.308 3.96615 126.421 3.41117 126.802 3.07347C126.972 2.92163 127.25 2.76456 127.282 2.74624C127.479 2.63629 127.586 2.60225 127.618 2.5944C127.66 2.58131 127.899 2.51063 128.02 2.52895C128.035 2.52895 128.106 2.54466 128.193 2.52372C128.193 2.52372 128.195 2.52372 128.198 2.52372C128.198 2.52372 131.138 2.53419 135.945 2.55252C136.394 2.55252 137.013 2.68603 137.651 3.07609C137.651 3.07609 138.173 3.39546 138.614 3.94783C139.352 4.87716 139.877 7.51072 139.751 10.9715C140.071 10.9427 140.392 10.9139 140.714 10.8851V1.20432H101.338H101.328ZM97.2801 11.304C95.0934 19.5502 92.9041 27.7964 90.7174 36.0426C90.5337 36.7704 88.9849 42.5375 83.7426 44.4747C82.7871 44.8281 79.3903 46.0821 76.6077 44.2234C74.0614 42.5218 72.9457 38.8254 74.0483 35.061C76.3452 26.7283 78.6421 18.3931 80.9391 10.0605C81.2987 8.98719 82.9709 4.39548 87.6304 2.34832C88.8536 1.81166 92.4369 0.23572 95.1801 2.07607C97.6187 3.7096 98.5848 7.49763 97.2801 11.304Z" fill="#8F4B9D"/>
<g id="Group">
<path id="Vector_4" d="M115.414 61.331C115.414 61.5771 115.367 61.8075 115.272 62.0221C115.178 62.2368 115.049 62.4253 114.889 62.5876C114.729 62.7499 114.537 62.8782 114.322 62.9698C114.107 63.064 113.873 63.1111 113.629 63.1111H110.649V57.166H113.629C113.876 57.166 114.107 57.2131 114.322 57.3074C114.537 57.4016 114.726 57.5299 114.889 57.6896C115.052 57.8493 115.18 58.0404 115.272 58.255C115.367 58.4697 115.414 58.7027 115.414 58.9462C115.414 59.0561 115.398 59.1687 115.369 59.2865C115.338 59.4017 115.296 59.5142 115.241 59.6216C115.186 59.7289 115.12 59.8284 115.041 59.9148C114.962 60.0038 114.878 60.0771 114.784 60.1347C114.881 60.187 114.968 60.2577 115.046 60.3493C115.123 60.4383 115.191 60.5378 115.246 60.6451C115.301 60.7525 115.343 60.865 115.372 60.9828C115.401 61.1006 115.417 61.2132 115.417 61.3258L115.414 61.331ZM111.839 59.5483H113.626C113.71 59.5483 113.786 59.5325 113.86 59.5038C113.933 59.475 113.994 59.4305 114.049 59.3781C114.104 59.3257 114.146 59.2603 114.175 59.187C114.204 59.1137 114.22 59.0352 114.22 58.954C114.22 58.8729 114.204 58.7943 114.175 58.721C114.146 58.6477 114.101 58.5875 114.049 58.5325C113.996 58.4776 113.931 58.4357 113.86 58.4069C113.789 58.3781 113.71 58.3624 113.626 58.3624H111.839V59.5509V59.5483ZM111.839 61.9226H113.626C113.71 61.9226 113.786 61.9069 113.86 61.8781C113.931 61.8467 113.994 61.8048 114.049 61.7525C114.104 61.7001 114.146 61.6347 114.175 61.564C114.204 61.4933 114.22 61.4148 114.22 61.331C114.22 61.2472 114.204 61.1713 114.175 61.098C114.143 61.0273 114.101 60.9645 114.049 60.9095C113.994 60.8546 113.931 60.8127 113.86 60.7839C113.789 60.7551 113.71 60.7394 113.626 60.7394H111.839V61.9253V61.9226Z" fill="#8F4B9D"/>
<path id="Vector_5" d="M121.016 63.1141H119.824V61.9256H117.438V63.1141H116.249V59.5486C116.249 59.2187 116.312 58.9098 116.435 58.6219C116.559 58.3339 116.729 58.08 116.944 57.8653C117.16 57.6506 117.412 57.4805 117.7 57.3548C117.989 57.2292 118.299 57.1689 118.63 57.1689C118.96 57.1689 119.27 57.2318 119.559 57.3548C119.848 57.4779 120.102 57.648 120.318 57.8653C120.533 58.0826 120.704 58.3339 120.83 58.6219C120.953 58.9098 121.016 59.2187 121.016 59.5486V63.1141ZM119.824 60.7397V59.5512C119.824 59.3889 119.793 59.2344 119.73 59.0878C119.667 58.9438 119.583 58.8156 119.475 58.7082C119.367 58.6009 119.241 58.5145 119.094 58.4543C118.95 58.3915 118.795 58.3601 118.63 58.3601C118.464 58.3601 118.312 58.3915 118.165 58.4543C118.021 58.5171 117.892 58.6009 117.784 58.7082C117.677 58.8156 117.59 58.9412 117.53 59.0878C117.467 59.2318 117.435 59.3863 117.435 59.5512V60.7397H119.821H119.824Z" fill="#8F4B9D"/>
<path id="Vector_6" d="M126.794 62.5117C126.515 62.7473 126.208 62.9279 125.867 63.0536C125.526 63.1792 125.171 63.2421 124.804 63.2421C124.52 63.2421 124.25 63.2054 123.987 63.1321C123.725 63.0588 123.481 62.9541 123.255 62.8206C123.029 62.6871 122.819 62.5274 122.63 62.3389C122.441 62.153 122.281 61.9462 122.147 61.7159C122.013 61.4881 121.911 61.242 121.838 60.9802C121.764 60.7184 121.727 60.4462 121.727 60.1635C121.727 59.8807 121.764 59.6111 121.838 59.3519C121.911 59.0928 122.013 58.8493 122.147 58.6216C122.281 58.3938 122.441 58.187 122.63 57.9985C122.819 57.81 123.027 57.6529 123.255 57.5194C123.483 57.3859 123.728 57.2838 123.987 57.2105C124.25 57.1372 124.52 57.1006 124.804 57.1006C125.171 57.1006 125.526 57.1634 125.867 57.2891C126.208 57.4147 126.518 57.5954 126.794 57.831L126.169 58.8676C125.988 58.6844 125.78 58.543 125.544 58.4383C125.308 58.3336 125.061 58.2839 124.801 58.2839C124.541 58.2839 124.297 58.3336 124.069 58.4331C123.84 58.5325 123.641 58.6661 123.468 58.8362C123.294 59.0064 123.161 59.2053 123.061 59.4331C122.961 59.6608 122.911 59.9043 122.911 60.1635C122.911 60.4226 122.961 60.6713 123.061 60.9017C123.161 61.1321 123.297 61.331 123.468 61.5038C123.638 61.6766 123.84 61.8101 124.069 61.9096C124.297 62.009 124.541 62.0588 124.801 62.0588C124.951 62.0588 125.095 62.0405 125.237 62.0038C125.379 61.9672 125.513 61.9174 125.641 61.8546V60.1635H126.794V62.5091V62.5117Z" fill="#8F4B9D"/>
<path id="Vector_7" d="M127.363 58.951C127.363 58.705 127.411 58.4746 127.505 58.2599C127.6 58.0453 127.728 57.8568 127.888 57.6945C128.051 57.5322 128.24 57.4039 128.455 57.3123C128.671 57.218 128.902 57.1709 129.148 57.1709H131.884V58.3594H129.148C129.064 58.3594 128.988 58.3751 128.915 58.4039C128.841 58.4327 128.781 58.4772 128.726 58.5296C128.671 58.5845 128.629 58.6474 128.6 58.718C128.571 58.7887 128.555 58.8673 128.555 58.951C128.555 59.0348 128.571 59.1133 128.6 59.184C128.629 59.2547 128.673 59.3202 128.726 59.3751C128.781 59.4301 128.844 59.472 128.915 59.5008C128.986 59.5296 129.064 59.5453 129.148 59.5453H130.34C130.587 59.5453 130.818 59.5924 131.036 59.684C131.254 59.7757 131.443 59.9039 131.605 60.0662C131.768 60.2285 131.894 60.417 131.989 60.6343C132.081 60.8516 132.128 61.082 132.128 61.328C132.128 61.5741 132.081 61.8045 131.989 62.0192C131.897 62.2338 131.768 62.4223 131.605 62.5846C131.443 62.7469 131.254 62.8752 131.036 62.9668C130.818 63.0611 130.587 63.1082 130.34 63.1082H127.694V61.9197H130.34C130.424 61.9197 130.5 61.904 130.574 61.8752C130.645 61.8438 130.708 61.8019 130.763 61.7495C130.818 61.6972 130.86 61.6317 130.889 61.561C130.92 61.4903 130.933 61.4118 130.933 61.328C130.933 61.2443 130.918 61.1684 130.889 61.0951C130.857 61.0244 130.815 60.9615 130.763 60.9066C130.708 60.8516 130.645 60.8097 130.574 60.7809C130.503 60.7521 130.424 60.7364 130.34 60.7364H129.148C128.902 60.7364 128.671 60.6893 128.455 60.595C128.24 60.5008 128.051 60.3725 127.888 60.2128C127.726 60.0505 127.597 59.862 127.505 59.6448C127.411 59.4275 127.363 59.1971 127.363 58.951Z" fill="#8F4B9D"/>
<path id="Vector_8" d="M139.995 63.1141H138.803V61.9256H136.417V63.1141H135.228V59.5486C135.228 59.2187 135.291 58.9098 135.414 58.6219C135.538 58.3339 135.708 58.08 135.924 57.8653C136.139 57.6506 136.391 57.4805 136.68 57.3548C136.968 57.2292 137.278 57.1689 137.609 57.1689C137.94 57.1689 138.249 57.2318 138.538 57.3548C138.827 57.4779 139.082 57.648 139.297 57.8653C139.512 58.0826 139.683 58.3339 139.809 58.6219C139.932 58.9098 139.995 59.2187 139.995 59.5486V63.1141ZM138.803 60.7397V59.5512C138.803 59.3889 138.772 59.2344 138.709 59.0878C138.646 58.9438 138.562 58.8156 138.454 58.7082C138.347 58.6009 138.221 58.5145 138.074 58.4543C137.929 58.3915 137.774 58.3601 137.609 58.3601C137.444 58.3601 137.291 58.3915 137.144 58.4543C137 58.5171 136.871 58.6009 136.764 58.7082C136.656 58.8156 136.569 58.9412 136.509 59.0878C136.446 59.2318 136.415 59.3863 136.415 59.5512V60.7397H138.801H138.803Z" fill="#8F4B9D"/>
<path id="Vector_9" d="M145.796 63.1141H144.521L142.221 59.2004V63.1141H141.029V57.1689H142.305L144.605 61.0852V57.1689H145.796V63.1141Z" fill="#8F4B9D"/>
<path id="Vector_10" d="M151.677 60.1402C151.677 60.4125 151.642 60.6769 151.572 60.9308C151.501 61.1847 151.401 61.4203 151.27 61.6402C151.138 61.8601 150.984 62.0591 150.805 62.2423C150.624 62.423 150.424 62.58 150.201 62.7083C149.981 62.8392 149.742 62.9387 149.487 63.0094C149.233 63.08 148.97 63.1141 148.694 63.1141H146.899V57.1689H148.694C148.97 57.1689 149.233 57.203 149.487 57.2737C149.742 57.3443 149.978 57.4438 150.201 57.5747C150.422 57.7056 150.624 57.8601 150.805 58.0407C150.986 58.2213 151.141 58.4229 151.27 58.6428C151.398 58.8627 151.501 59.0983 151.572 59.3522C151.642 59.6062 151.677 59.8679 151.677 60.1428V60.1402ZM150.485 60.1402C150.485 59.8941 150.438 59.6638 150.346 59.4491C150.254 59.2344 150.125 59.0459 149.962 58.8836C149.8 58.7213 149.611 58.5931 149.393 58.5014C149.175 58.4072 148.944 58.3601 148.697 58.3601H148.104V61.9256H148.697C148.944 61.9256 149.175 61.8785 149.393 61.7868C149.611 61.6952 149.8 61.5669 149.962 61.4046C150.125 61.2423 150.251 61.0538 150.346 60.8366C150.438 60.6193 150.485 60.3889 150.485 60.1428V60.1402Z" fill="#8F4B9D"/>
<path id="Vector_11" d="M156.042 63.1141H154.85V57.1689H159.024V58.3575H156.045V59.546H157.832V60.7345H156.045V63.1088L156.042 63.1141Z" fill="#8F4B9D"/>
<path id="Vector_12" d="M164.206 63.1141H163.014V61.9256H160.628V63.1141H159.439V59.5486C159.439 59.2187 159.502 58.9098 159.625 58.6219C159.749 58.3339 159.919 58.08 160.135 57.8653C160.35 57.6506 160.602 57.4805 160.891 57.3548C161.179 57.2292 161.489 57.1689 161.82 57.1689C162.151 57.1689 162.46 57.2318 162.749 57.3548C163.038 57.4779 163.293 57.648 163.508 57.8653C163.723 58.0826 163.894 58.3339 164.02 58.6219C164.143 58.9098 164.206 59.2187 164.206 59.5486V63.1141ZM163.014 60.7397V59.5512C163.014 59.3889 162.983 59.2344 162.92 59.0878C162.857 58.9438 162.773 58.8156 162.665 58.7082C162.558 58.6009 162.432 58.5145 162.285 58.4543C162.14 58.3915 161.985 58.3601 161.82 58.3601C161.655 58.3601 161.502 58.3915 161.355 58.4543C161.211 58.5171 161.082 58.6009 160.975 58.7082C160.867 58.8156 160.78 58.9412 160.72 59.0878C160.657 59.2318 160.625 59.3863 160.625 59.5512V60.7397H163.012H163.014Z" fill="#8F4B9D"/>
<path id="Vector_13" d="M164.891 58.951C164.891 58.705 164.938 58.4746 165.033 58.2599C165.127 58.0453 165.256 57.8568 165.416 57.6945C165.579 57.5322 165.768 57.4039 165.983 57.3123C166.198 57.218 166.429 57.1709 166.676 57.1709H169.411V58.3594H166.676C166.592 58.3594 166.516 58.3751 166.443 58.4039C166.369 58.4327 166.309 58.4772 166.254 58.5296C166.198 58.5845 166.156 58.6474 166.128 58.718C166.099 58.7887 166.083 58.8673 166.083 58.951C166.083 59.0348 166.099 59.1133 166.128 59.184C166.156 59.2547 166.201 59.3202 166.254 59.3751C166.309 59.4301 166.372 59.472 166.443 59.5008C166.513 59.5296 166.592 59.5453 166.676 59.5453H167.868C168.115 59.5453 168.346 59.5924 168.564 59.684C168.781 59.7757 168.97 59.9039 169.133 60.0662C169.296 60.2285 169.422 60.417 169.516 60.6343C169.608 60.8516 169.656 61.082 169.656 61.328C169.656 61.5741 169.608 61.8045 169.516 62.0192C169.425 62.2338 169.296 62.4223 169.133 62.5846C168.97 62.7469 168.781 62.8752 168.564 62.9668C168.346 63.0611 168.115 63.1082 167.868 63.1082H165.222V61.9197H167.868C167.952 61.9197 168.028 61.904 168.102 61.8752C168.172 61.8438 168.235 61.8019 168.291 61.7495C168.346 61.6972 168.388 61.6317 168.417 61.561C168.448 61.4903 168.461 61.4118 168.461 61.328C168.461 61.2443 168.445 61.1684 168.417 61.0951C168.385 61.0244 168.343 60.9615 168.291 60.9066C168.235 60.8516 168.172 60.8097 168.102 60.7809C168.031 60.7521 167.952 60.7364 167.868 60.7364H166.676C166.429 60.7364 166.198 60.6893 165.983 60.595C165.768 60.5008 165.579 60.3725 165.416 60.2128C165.253 60.0505 165.125 59.862 165.033 59.6448C164.938 59.4275 164.891 59.1971 164.891 58.951Z" fill="#8F4B9D"/>
<path id="Vector_14" d="M171.632 63.1141H170.441V57.1689H171.632V59.5486H174.013V57.1689H175.205V63.1141H174.013V60.7397H171.632V63.1141Z" fill="#8F4B9D"/>
<path id="Vector_15" d="M177.505 63.1141H176.313V57.1689H177.505V63.1141Z" fill="#8F4B9D"/>
<path id="Vector_16" d="M184.451 60.1661C184.451 60.4489 184.414 60.7185 184.34 60.9803C184.267 61.2421 184.164 61.4855 184.03 61.7133C183.897 61.941 183.736 62.1505 183.547 62.3363C183.358 62.5222 183.151 62.6845 182.923 62.818C182.694 62.9515 182.45 63.0562 182.188 63.1295C181.925 63.2028 181.652 63.2395 181.369 63.2395C181.085 63.2395 180.815 63.2028 180.552 63.1295C180.29 63.0562 180.046 62.9515 179.817 62.818C179.589 62.6845 179.379 62.5222 179.192 62.3363C179.006 62.1505 178.843 61.941 178.709 61.7133C178.576 61.4855 178.471 61.2421 178.397 60.9803C178.324 60.7185 178.287 60.4489 178.287 60.1661C178.287 59.8834 178.324 59.6111 178.397 59.3494C178.471 59.0876 178.576 58.8415 178.709 58.6164C178.843 58.3886 179.006 58.1818 179.192 57.9933C179.379 57.8048 179.589 57.6451 179.817 57.5116C180.046 57.3781 180.292 57.276 180.552 57.2027C180.815 57.1294 181.085 57.0928 181.369 57.0928C181.652 57.0928 181.925 57.1294 182.188 57.2027C182.45 57.276 182.697 57.3781 182.923 57.5116C183.151 57.6451 183.358 57.8048 183.547 57.9933C183.736 58.1818 183.897 58.3886 184.03 58.6164C184.164 58.8441 184.267 59.0876 184.34 59.3494C184.414 59.6111 184.451 59.8834 184.451 60.1661ZM183.267 60.1661C183.267 59.907 183.217 59.6609 183.117 59.4305C183.017 59.2001 182.881 58.9986 182.713 58.8284C182.545 58.6582 182.34 58.5247 182.109 58.4253C181.878 58.3258 181.631 58.276 181.371 58.276C181.111 58.276 180.862 58.3258 180.631 58.4253C180.4 58.5247 180.201 58.6582 180.027 58.8284C179.857 58.9986 179.72 59.1975 179.62 59.4305C179.521 59.6609 179.471 59.907 179.471 60.1661C179.471 60.4253 179.521 60.6688 179.62 60.8965C179.72 61.1243 179.857 61.3232 180.027 61.496C180.198 61.6688 180.4 61.8023 180.631 61.9018C180.862 62.0012 181.109 62.051 181.371 62.051C181.634 62.051 181.878 62.0012 182.109 61.9018C182.34 61.8023 182.542 61.6662 182.713 61.496C182.883 61.3258 183.017 61.1243 183.117 60.8965C183.217 60.6688 183.267 60.4253 183.267 60.1661Z" fill="#8F4B9D"/>
<path id="Vector_17" d="M190 63.1141H188.724L186.425 59.2004V63.1141H185.233V57.1689H186.509L188.808 61.0852V57.1689H190V63.1141Z" fill="#8F4B9D"/>
</g>
</g>
</g>
</svg>
