<svg width="177" height="64" viewBox="0 0 177 64" fill="none" xmlns="http://www.w3.org/2000/svg">
<path d="M0 46.0327C0.895638 45.8943 4.59478 45.2258 7.22075 41.9201C9.06237 39.6014 9.4413 37.1705 9.53934 36.1104C9.65063 37.1313 10.0773 39.779 12.1892 42.2465C14.5952 45.0561 17.6425 45.8264 18.615 46.0327C17.7564 46.1684 14.4415 46.7899 11.9904 49.7535C10.1355 51.9991 9.76722 54.3909 9.67183 55.3675C9.54729 54.4718 9.01468 51.469 6.35956 48.9702C3.82898 46.5888 0.935385 46.1397 0 46.0327Z" fill="#FF8438"/>
<path d="M170.105 44.7266C168.674 43.7369 167.99 42.4967 167.72 41.9196C164.442 35.1489 161.18 28.031 157.982 20.5736C155.102 13.8551 152.46 7.29858 150.033 0.924805H148.973C142.923 14.7194 136.871 28.5166 130.821 42.3113C130.636 42.8257 130.217 43.7474 129.298 44.5307C127.53 46.0374 125.362 46.2566 124.936 46.2724H136.717C136.127 46.2724 134.648 46.0452 133.339 45.3141C132.994 45.1208 132.549 44.865 132.279 44.3349C131.81 43.4158 132.258 42.4314 132.345 42.246C134.134 38.1335 135.922 34.0209 137.711 29.9084H150.695C152.102 33.6527 153.618 36.5903 154.802 38.6557C157.15 42.7499 158.385 43.7604 159.108 44.2696C161.803 46.1653 164.821 46.3246 166.462 46.2724H173.484C172.842 46.2071 171.483 45.6796 170.105 44.7266ZM138.042 28.4723L143.872 15.0902H144.534L150.099 28.4723H138.042Z" fill="#FF8438"/>
<path d="M87.1419 1.36104V3.66928C83.8429 1.25137 80.21 0.577696 79.105 0.488917C76.4579 0.280027 73.09 0.384472 69.4332 1.47593C57.0851 5.16023 51.8649 16.9756 50.9269 19.2029C50.7043 17.4352 50.0842 14.4689 48.0995 11.4557C44.9092 6.61463 40.1872 4.70329 37.4128 3.62228C35.0439 2.70055 32.4683 2.05821 25.5867 1.57776C21.0581 1.26181 14.8549 1.02681 7.38245 1.36104C8.17474 1.59343 9.40956 2.08693 10.4748 3.18883C10.7583 3.48128 10.9915 3.77894 11.1823 4.05834V25.7307L22.2241 38.7002V2.49166C25.3694 2.32454 31.2705 2.55432 35.497 6.47624C40.1845 10.8238 40.3011 17.2654 40.166 26.3391C40.0944 31.0522 39.4187 33.8905 38.478 36.2614C37.6434 38.3686 36.4827 41.0973 33.6209 43.2253C31.4083 44.8703 29.1321 45.437 27.7913 45.6615C30.7406 45.8965 34.7762 45.7372 39.0107 44.0217C40.4495 43.4394 42.4157 42.6195 44.4242 40.8205C47.3682 38.1858 48.6162 34.995 49.1648 33.0419C49.4085 34.102 51.168 41.2356 57.9091 44.3716C60.7842 45.7085 63.495 45.8208 65.1538 45.7398C67.369 45.7868 75.2628 45.6876 82.5551 40.0058C89.4579 34.6269 91.4426 27.6604 91.9884 25.6263C92.7039 22.9629 95.4915 12.5576 89.442 5.75296C89.4473 5.75296 89.4499 5.75557 89.4552 5.75818C89.434 5.66679 89.1187 4.1915 90.0647 3.275C90.1071 3.23322 90.7324 2.6431 91.477 2.57782C91.6069 2.56738 92.1845 2.53343 92.1845 2.53343L99.7365 2.56999C99.6676 2.55955 100.465 2.56477 100.863 2.77105C101.454 3.07655 101.522 4.0035 101.546 4.31684C101.656 5.71572 101.789 20.0129 101.884 39.8277C101.892 41.5624 101.924 43.4662 100.751 44.745C99.612 45.9905 98.1546 46.2177 97.7492 46.2673H116.475C116.173 46.2516 114.88 46.1472 113.826 45.0923C112.718 43.9852 112.67 42.63 112.668 42.348C112.554 29.6709 112.44 16.9913 112.326 4.31423C112.358 4.11578 112.472 3.56222 112.856 3.22538C113.028 3.07394 113.309 2.91727 113.341 2.89899C113.539 2.78933 113.648 2.75538 113.68 2.74755C113.722 2.73449 113.963 2.66399 114.085 2.68227C114.101 2.68227 114.173 2.69794 114.26 2.67705C114.26 2.67705 114.263 2.67705 114.265 2.67705C114.265 2.67705 117.233 2.68749 122.085 2.70577C122.538 2.70577 123.164 2.83894 123.807 3.228C123.807 3.228 124.335 3.54655 124.78 4.0975C125.525 5.02445 126.054 7.65125 125.927 11.1032C126.251 11.0744 126.574 11.0457 126.9 11.017V1.36104H87.1525H87.1419ZM83.0559 11.4348C80.8486 19.6599 78.6387 27.8849 76.4314 36.11C76.2459 36.8359 74.6825 42.5882 69.3908 44.5205C68.4263 44.873 64.9974 46.1237 62.1886 44.2698C59.6183 42.5725 58.4921 38.8856 59.605 35.1308C61.9236 26.8196 64.2422 18.5057 66.5608 10.1945C66.9238 9.12393 68.6118 4.54401 73.3152 2.5021C74.55 1.96682 78.167 0.394916 80.9361 2.23054C83.3977 3.85989 84.3729 7.6382 83.0559 11.4348Z" fill="#FF8438"/>
<path d="M101.361 61.334C101.361 61.5794 101.313 61.8092 101.218 62.0233C101.122 62.2375 100.992 62.4255 100.831 62.5873C100.669 62.7492 100.476 62.8772 100.258 62.9686C100.041 63.0626 99.8054 63.1096 99.5589 63.1096H96.5514V57.1797H99.5589C99.808 57.1797 100.041 57.2267 100.258 57.3207C100.476 57.4147 100.667 57.5426 100.831 57.7019C100.995 57.8612 101.125 58.0518 101.218 58.2659C101.313 58.48 101.361 58.7124 101.361 58.9553C101.361 59.0649 101.345 59.1772 101.316 59.2947C101.284 59.4096 101.242 59.5219 101.186 59.6289C101.13 59.736 101.064 59.8352 100.985 59.9214C100.905 60.0102 100.82 60.0833 100.725 60.1407C100.823 60.1929 100.91 60.2634 100.99 60.3548C101.067 60.4436 101.136 60.5428 101.191 60.6499C101.247 60.7569 101.289 60.8692 101.318 60.9867C101.348 61.1042 101.363 61.2165 101.363 61.3288L101.361 61.334ZM97.7518 59.5558H99.5563C99.6411 59.5558 99.7179 59.5401 99.7921 59.5114C99.8663 59.4827 99.9273 59.4383 99.9829 59.3861C100.039 59.3339 100.081 59.2686 100.11 59.1955C100.139 59.1224 100.155 59.044 100.155 58.9631C100.155 58.8821 100.139 58.8038 100.11 58.7307C100.081 58.6576 100.036 58.5975 99.9829 58.5427C99.9299 58.4879 99.8637 58.4461 99.7921 58.4174C99.7206 58.3886 99.6411 58.373 99.5563 58.373H97.7518V59.5584V59.5558ZM97.7518 61.9241H99.5563C99.6411 61.9241 99.7179 61.9084 99.7921 61.8797C99.8637 61.8484 99.9273 61.8066 99.9829 61.7544C100.039 61.7022 100.081 61.6369 100.11 61.5664C100.139 61.4959 100.155 61.4176 100.155 61.334C100.155 61.2504 100.139 61.1747 100.11 61.1016C100.078 61.0311 100.036 60.9684 99.9829 60.9136C99.9273 60.8588 99.8637 60.817 99.7921 60.7883C99.7206 60.7595 99.6411 60.7439 99.5563 60.7439H97.7518V61.9267V61.9241Z" fill="#FF8438"/>
<path d="M107.016 63.1125H105.813V61.927H103.404V63.1125H102.203V59.5561C102.203 59.2271 102.267 58.919 102.392 58.6318C102.516 58.3446 102.688 58.0913 102.906 57.8772C103.123 57.6631 103.377 57.4933 103.669 57.368C103.96 57.2427 104.273 57.1826 104.607 57.1826C104.941 57.1826 105.253 57.2453 105.545 57.368C105.836 57.4907 106.093 57.6605 106.311 57.8772C106.528 58.0939 106.7 58.3446 106.827 58.6318C106.952 58.919 107.016 59.2271 107.016 59.5561V63.1125ZM105.813 60.7442V59.5587C105.813 59.3969 105.781 59.2428 105.717 59.0966C105.654 58.953 105.569 58.825 105.46 58.718C105.351 58.6109 105.224 58.5247 105.076 58.4647C104.93 58.402 104.774 58.3707 104.607 58.3707C104.44 58.3707 104.286 58.402 104.138 58.4647C103.992 58.5274 103.862 58.6109 103.754 58.718C103.645 58.825 103.558 58.9504 103.497 59.0966C103.433 59.2402 103.401 59.3942 103.401 59.5587V60.7442H105.81H105.813Z" fill="#FF8438"/>
<path d="M112.848 62.5115C112.567 62.7465 112.257 62.9266 111.912 63.052C111.568 63.1773 111.21 63.24 110.839 63.24C110.553 63.24 110.28 63.2034 110.015 63.1303C109.75 63.0572 109.504 62.9527 109.276 62.8196C109.048 62.6864 108.836 62.5271 108.645 62.3391C108.454 62.1537 108.293 61.9475 108.158 61.7177C108.022 61.4905 107.919 61.2451 107.845 60.984C107.771 60.7228 107.734 60.4513 107.734 60.1693C107.734 59.8873 107.771 59.6183 107.845 59.3598C107.919 59.1013 108.022 58.8585 108.158 58.6313C108.293 58.4042 108.454 58.1979 108.645 58.0099C108.836 57.8219 109.045 57.6652 109.276 57.532C109.506 57.3989 109.753 57.297 110.015 57.2239C110.28 57.1508 110.553 57.1143 110.839 57.1143C111.21 57.1143 111.568 57.1769 111.912 57.3023C112.257 57.4276 112.57 57.6078 112.848 57.8428L112.217 58.8768C112.034 58.694 111.825 58.553 111.586 58.4485C111.348 58.3441 111.099 58.2945 110.837 58.2945C110.574 58.2945 110.328 58.3441 110.097 58.4433C109.867 58.5425 109.665 58.6757 109.49 58.8454C109.316 59.0152 109.18 59.2136 109.08 59.4408C108.979 59.6679 108.929 59.9108 108.929 60.1693C108.929 60.4278 108.979 60.6758 109.08 60.9056C109.18 61.1354 109.318 61.3338 109.49 61.5062C109.663 61.6785 109.867 61.8117 110.097 61.9109C110.328 62.0101 110.574 62.0597 110.837 62.0597C110.988 62.0597 111.133 62.0415 111.276 62.0049C111.42 61.9684 111.555 61.9187 111.685 61.8561V60.1693H112.848V62.5089V62.5115Z" fill="#FF8438"/>
<path d="M113.423 58.9601C113.423 58.7147 113.471 58.4849 113.566 58.2708C113.661 58.0567 113.791 57.8687 113.953 57.7068C114.117 57.5449 114.308 57.417 114.525 57.3256C114.742 57.2316 114.976 57.1846 115.225 57.1846H117.986V58.37H115.225C115.14 58.37 115.063 58.3857 114.989 58.4144C114.915 58.4431 114.854 58.4875 114.798 58.5397C114.742 58.5946 114.7 58.6572 114.671 58.7277C114.642 58.7982 114.626 58.8766 114.626 58.9601C114.626 59.0437 114.642 59.122 114.671 59.1925C114.7 59.263 114.745 59.3283 114.798 59.3831C114.854 59.438 114.917 59.4798 114.989 59.5085C115.06 59.5372 115.14 59.5529 115.225 59.5529H116.428C116.677 59.5529 116.91 59.5999 117.13 59.6913C117.35 59.7826 117.541 59.9106 117.705 60.0725C117.869 60.2344 117.996 60.4224 118.092 60.6391C118.185 60.8558 118.232 61.0856 118.232 61.331C118.232 61.5765 118.185 61.8063 118.092 62.0204C117.999 62.2345 117.869 62.4225 117.705 62.5844C117.541 62.7463 117.35 62.8742 117.13 62.9656C116.91 63.0596 116.677 63.1066 116.428 63.1066H113.757V61.9212H116.428C116.513 61.9212 116.589 61.9055 116.664 61.8768C116.735 61.8454 116.799 61.8037 116.854 61.7514C116.91 61.6992 116.952 61.6339 116.982 61.5634C117.013 61.4929 117.027 61.4146 117.027 61.331C117.027 61.2475 117.011 61.1718 116.982 61.0987C116.95 61.0282 116.907 60.9655 116.854 60.9107C116.799 60.8558 116.735 60.814 116.664 60.7853C116.592 60.7566 116.513 60.7409 116.428 60.7409H115.225C114.976 60.7409 114.742 60.6939 114.525 60.5999C114.308 60.5059 114.117 60.378 113.953 60.2187C113.789 60.0568 113.659 59.8688 113.566 59.6521C113.471 59.4354 113.423 59.2056 113.423 58.9601Z" fill="#FF8438"/>
<path d="M126.174 63.1125H124.971V61.927H122.562V63.1125H121.362V59.5561C121.362 59.2271 121.425 58.919 121.55 58.6318C121.674 58.3446 121.847 58.0913 122.064 57.8772C122.281 57.6631 122.536 57.4933 122.827 57.368C123.119 57.2427 123.431 57.1826 123.765 57.1826C124.099 57.1826 124.412 57.2453 124.703 57.368C124.995 57.4907 125.252 57.6605 125.469 57.8772C125.686 58.0939 125.858 58.3446 125.986 58.6318C126.11 58.919 126.174 59.2271 126.174 59.5561V63.1125ZM124.971 60.7442V59.5587C124.971 59.3969 124.939 59.2428 124.875 59.0966C124.812 58.953 124.727 58.825 124.618 58.718C124.51 58.6109 124.382 58.5247 124.234 58.4647C124.088 58.402 123.932 58.3707 123.765 58.3707C123.598 58.3707 123.444 58.402 123.296 58.4647C123.15 58.5274 123.02 58.6109 122.912 58.718C122.803 58.825 122.716 58.9504 122.655 59.0966C122.591 59.2402 122.559 59.3942 122.559 59.5587V60.7442H124.968H124.971Z" fill="#FF8438"/>
<path d="M132.03 63.1125H130.742L128.421 59.2089V63.1125H127.218V57.1826H128.506L130.827 61.0889V57.1826H132.03V63.1125Z" fill="#FF8438"/>
<path d="M137.965 60.1463C137.965 60.4178 137.931 60.6815 137.859 60.9348C137.788 61.1881 137.687 61.4231 137.555 61.6424C137.422 61.8618 137.266 62.0602 137.086 62.243C136.903 62.4232 136.701 62.5798 136.476 62.7078C136.254 62.8383 136.012 62.9376 135.755 63.0081C135.498 63.0786 135.233 63.1125 134.955 63.1125H133.143V57.1826H134.955C135.233 57.1826 135.498 57.2166 135.755 57.2871C136.012 57.3576 136.251 57.4568 136.476 57.5873C136.699 57.7179 136.903 57.872 137.086 58.0521C137.268 58.2323 137.425 58.4334 137.555 58.6527C137.684 58.872 137.788 59.107 137.859 59.3603C137.931 59.6136 137.965 59.8747 137.965 60.1489V60.1463ZM136.762 60.1463C136.762 59.9008 136.715 59.671 136.622 59.4569C136.529 59.2428 136.399 59.0548 136.235 58.8929C136.071 58.731 135.88 58.6031 135.66 58.5117C135.44 58.4177 135.207 58.3707 134.958 58.3707H134.359V61.927H134.958C135.207 61.927 135.44 61.88 135.66 61.7887C135.88 61.6973 136.071 61.5693 136.235 61.4074C136.399 61.2455 136.527 61.0575 136.622 60.8408C136.715 60.6241 136.762 60.3943 136.762 60.1489V60.1463Z" fill="#FF8438"/>
<path d="M142.372 63.1125H141.169V57.1826H145.382V58.3681H142.375V59.5535H144.179V60.739H142.375V63.1073L142.372 63.1125Z" fill="#FF8438"/>
<path d="M150.613 63.1125H149.41V61.927H147.001V63.1125H145.801V59.5561C145.801 59.2271 145.865 58.919 145.989 58.6318C146.114 58.3446 146.286 58.0913 146.503 57.8772C146.72 57.6631 146.975 57.4933 147.266 57.368C147.558 57.2427 147.87 57.1826 148.204 57.1826C148.538 57.1826 148.851 57.2453 149.142 57.368C149.434 57.4907 149.691 57.6605 149.908 57.8772C150.125 58.0939 150.298 58.3446 150.425 58.6318C150.549 58.919 150.613 59.2271 150.613 59.5561V63.1125ZM149.41 60.7442V59.5587C149.41 59.3969 149.378 59.2428 149.315 59.0966C149.251 58.953 149.166 58.825 149.058 58.718C148.949 58.6109 148.822 58.5247 148.673 58.4647C148.528 58.402 148.371 58.3707 148.204 58.3707C148.037 58.3707 147.884 58.402 147.735 58.4647C147.59 58.5274 147.46 58.6109 147.351 58.718C147.242 58.825 147.155 58.9504 147.094 59.0966C147.03 59.2402 146.999 59.3942 146.999 59.5587V60.7442H149.407H149.41Z" fill="#FF8438"/>
<path d="M151.305 58.9601C151.305 58.7147 151.352 58.4849 151.448 58.2708C151.543 58.0567 151.673 57.8687 151.835 57.7068C151.999 57.5449 152.19 57.417 152.407 57.3256C152.624 57.2316 152.857 57.1846 153.106 57.1846H155.868V58.37H153.106C153.022 58.37 152.945 58.3857 152.871 58.4144C152.796 58.4431 152.735 58.4875 152.68 58.5397C152.624 58.5946 152.582 58.6572 152.553 58.7277C152.523 58.7982 152.508 58.8766 152.508 58.9601C152.508 59.0437 152.523 59.122 152.553 59.1925C152.582 59.263 152.627 59.3283 152.68 59.3831C152.735 59.438 152.799 59.4798 152.871 59.5085C152.942 59.5372 153.022 59.5529 153.106 59.5529H154.309C154.559 59.5529 154.792 59.5999 155.012 59.6913C155.232 59.7826 155.422 59.9106 155.587 60.0725C155.751 60.2344 155.878 60.4224 155.974 60.6391C156.066 60.8558 156.114 61.0856 156.114 61.331C156.114 61.5765 156.066 61.8063 155.974 62.0204C155.881 62.2345 155.751 62.4225 155.587 62.5844C155.422 62.7463 155.232 62.8742 155.012 62.9656C154.792 63.0596 154.559 63.1066 154.309 63.1066H151.638V61.9212H154.309C154.394 61.9212 154.471 61.9055 154.545 61.8768C154.617 61.8454 154.68 61.8037 154.736 61.7514C154.792 61.6992 154.834 61.6339 154.863 61.5634C154.895 61.4929 154.908 61.4146 154.908 61.331C154.908 61.2475 154.892 61.1718 154.863 61.0987C154.831 61.0282 154.789 60.9655 154.736 60.9107C154.68 60.8558 154.617 60.814 154.545 60.7853C154.474 60.7566 154.394 60.7409 154.309 60.7409H153.106C152.857 60.7409 152.624 60.6939 152.407 60.5999C152.19 60.5059 151.999 60.378 151.835 60.2187C151.67 60.0568 151.54 59.8688 151.448 59.6521C151.352 59.4354 151.305 59.2056 151.305 58.9601Z" fill="#FF8438"/>
<path d="M158.109 63.1125H156.906V57.1826H158.109V59.5561H160.513V57.1826H161.716V63.1125H160.513V60.7442H158.109V63.1125Z" fill="#FF8438"/>
<path d="M164.037 63.1125H162.834V57.1826H164.037V63.1125Z" fill="#FF8438"/>
<path d="M171.048 60.1719C171.048 60.4539 171.011 60.7229 170.937 60.984C170.863 61.2451 170.759 61.4879 170.624 61.7151C170.489 61.9423 170.328 62.1512 170.137 62.3365C169.946 62.5219 169.737 62.6838 169.506 62.817C169.276 62.9502 169.029 63.0546 168.764 63.1277C168.499 63.2008 168.224 63.2374 167.937 63.2374C167.651 63.2374 167.378 63.2008 167.113 63.1277C166.848 63.0546 166.602 62.9502 166.371 62.817C166.141 62.6838 165.929 62.5219 165.741 62.3365C165.553 62.1512 165.388 61.9423 165.253 61.7151C165.118 61.4879 165.012 61.2451 164.938 60.984C164.864 60.7229 164.827 60.4539 164.827 60.1719C164.827 59.8899 164.864 59.6184 164.938 59.3572C165.012 59.0961 165.118 58.8507 165.253 58.6261C165.388 58.399 165.553 58.1927 165.741 58.0047C165.929 57.8167 166.141 57.6574 166.371 57.5242C166.602 57.3911 166.851 57.2892 167.113 57.2161C167.378 57.143 167.651 57.1064 167.937 57.1064C168.224 57.1064 168.499 57.143 168.764 57.2161C169.029 57.2892 169.278 57.3911 169.506 57.5242C169.737 57.6574 169.946 57.8167 170.137 58.0047C170.328 58.1927 170.489 58.399 170.624 58.6261C170.759 58.8533 170.863 59.0961 170.937 59.3572C171.011 59.6184 171.048 59.8899 171.048 60.1719ZM169.853 60.1719C169.853 59.9134 169.803 59.668 169.702 59.4382C169.601 59.2084 169.464 59.0073 169.294 58.8376C169.125 58.6679 168.918 58.5347 168.685 58.4355C168.451 58.3363 168.202 58.2867 167.94 58.2867C167.678 58.2867 167.426 58.3363 167.193 58.4355C166.96 58.5347 166.758 58.6679 166.583 58.8376C166.411 59.0073 166.273 59.2058 166.173 59.4382C166.072 59.668 166.022 59.9134 166.022 60.1719C166.022 60.4304 166.072 60.6733 166.173 60.9004C166.273 61.1276 166.411 61.326 166.583 61.4984C166.756 61.6707 166.96 61.8039 167.193 61.9031C167.426 62.0023 167.675 62.0519 167.94 62.0519C168.205 62.0519 168.451 62.0023 168.685 61.9031C168.918 61.8039 169.122 61.6681 169.294 61.4984C169.466 61.3286 169.601 61.1276 169.702 60.9004C169.803 60.6733 169.853 60.4304 169.853 60.1719Z" fill="#FF8438"/>
<path d="M176.65 63.1125H175.362L173.041 59.2089V63.1125H171.838V57.1826H173.126L175.447 61.0889V57.1826H176.65V63.1125Z" fill="#FF8438"/>
</svg>
