<svg width="53" height="50" viewBox="0 0 53 50" fill="none" xmlns="http://www.w3.org/2000/svg">
<g id="Icon">
<path id="Bg" fill-rule="evenodd" clip-rule="evenodd" d="M25.3121 15.502C25.3121 8.04612 31.3562 2.00196 38.8121 2.00196C46.2679 2.00196 52.3121 8.04612 52.3121 15.502C52.3121 22.9578 46.2679 29.002 38.8121 29.002C31.3562 29.002 25.3121 22.9578 25.3121 15.502Z" fill="#FF8438"/>
<g id="Group 4030">
<g id="Group 4029">
<path id="Path 498" fill-rule="evenodd" clip-rule="evenodd" d="M45.7198 37.8485L24.4827 48.1006V23.1112L29.5484 20.6657C29.9127 20.4898 30.0654 20.052 29.8895 19.6876C29.7136 19.3235 29.2758 19.1705 28.9115 19.3465L23.7503 21.8382L21.7194 20.8577C21.355 20.6817 20.9172 20.8346 20.7414 21.1989C20.5655 21.5631 20.7182 22.001 21.0825 22.1769L23.0178 23.1112V48.1006L1.78074 37.8483V12.8588L17.9526 20.666C18.0552 20.7156 18.1637 20.739 18.2705 20.739C18.5427 20.739 18.8043 20.5865 18.9305 20.3248C19.1064 19.9606 18.9537 19.5227 18.5894 19.3468L2.73299 11.6919L10.0089 8.17943L32.0102 18.8008C32.0134 18.8053 32.017 18.8093 32.0204 18.8137V27.6027C32.0204 27.8547 32.15 28.089 32.3634 28.2231C32.482 28.2975 32.6172 28.3351 32.7529 28.3351C32.8615 28.3351 32.9704 28.311 33.0712 28.2622L38.551 25.6168C38.8041 25.4947 38.965 25.2384 38.965 24.9573V16.1199L45.7198 12.8589V37.8485V37.8485ZM37.5002 16.8269V24.4974L33.4852 26.4357V18.7652L37.5002 16.8269ZM16.0224 5.306L37.0091 15.4374L32.7108 17.5125L11.7328 7.3852L16.0224 5.306ZM23.7503 1.54575L44.7675 11.6919L38.6751 14.6331C38.6365 14.6038 38.5958 14.5766 38.551 14.555L17.6765 4.47788L23.7503 1.54575ZM46.7707 11.0324L24.0687 0.0728025C23.8675 -0.0242675 23.6331 -0.0242675 23.4319 0.0728025L0.729888 11.0324C0.476768 11.1545 0.315918 11.4109 0.315918 11.6919V38.308C0.315918 38.5891 0.476758 38.8454 0.729888 38.9676L23.4318 49.9272C23.5324 49.9757 23.6414 50 23.7503 50C23.8592 50 23.968 49.9757 24.0687 49.9272L46.7707 38.9676C47.0238 38.8454 47.1846 38.5891 47.1846 38.308V11.692C47.1846 11.4108 47.0237 11.1546 46.7707 11.0324V11.0324Z" fill="black"/>
</g>
</g>
<g id="Group 4032">
<g id="Group 4031">
<path id="Path 499" fill-rule="evenodd" clip-rule="evenodd" d="M7.82423 35.0064L4.49499 33.3962C4.13079 33.2199 3.69339 33.373 3.51763 33.7377C3.34187 34.1024 3.49451 34.5408 3.85851 34.7169L7.18775 36.3271C7.29032 36.3767 7.39874 36.4002 7.5054 36.4002C7.77748 36.4002 8.03882 36.2475 8.165 35.9856C8.34086 35.6208 8.18823 35.1826 7.82423 35.0064V35.0064Z" fill="black"/>
</g>
</g>
<g id="Group 4034">
<g id="Group 4033">
<path id="Path 500" fill-rule="evenodd" clip-rule="evenodd" d="M10.8865 33.0161L4.49493 29.9287C4.13067 29.7527 3.69297 29.9055 3.51714 30.27C3.3414 30.6344 3.49409 31.0724 3.85827 31.2484L10.2499 34.3358C10.3525 34.3854 10.4609 34.4089 10.5676 34.4089C10.8399 34.4089 11.1013 34.2563 11.2276 33.9946C11.4034 33.63 11.2507 33.1919 10.8865 33.0161L10.8865 33.0161Z" fill="black"/>
</g>
</g>
</g>
</svg>
