<svg width="60" height="38" viewBox="0 0 60 38" fill="none" xmlns="http://www.w3.org/2000/svg">
<g id="002-shipped">
<path id="Ellipse 45" fill-rule="evenodd" clip-rule="evenodd" d="M4.12243 19.5015C4.12243 12.0456 10.1666 6.00147 17.6224 6.00147C25.0783 6.00147 31.1224 12.0456 31.1224 19.5015C31.1224 26.9573 25.0783 33.0015 17.6224 33.0015C10.1666 33.0015 4.12243 26.9573 4.12243 19.5015Z" fill="#FF8438"/>
<g id="Group 4036">
<g id="Group 4035">
<path id="Path 501" fill-rule="evenodd" clip-rule="evenodd" d="M57.2592 23.9983H56.2102C55.6318 23.9983 55.1613 23.5277 55.1613 22.9493V21.9003H57.2591V23.9983H57.2592ZM49.2996 35.8451C47.0882 35.8451 45.289 34.046 45.289 31.8345C45.289 29.6229 47.0882 27.8238 49.2996 27.8238C51.5111 27.8238 53.3103 29.6229 53.3103 31.8345C53.3103 34.046 51.5111 35.8451 49.2996 35.8451ZM16.721 35.8451C14.5095 35.8451 12.7104 34.046 12.7104 31.8345C12.7104 29.6229 14.5095 27.8238 16.721 27.8238C18.9324 27.8238 20.7316 29.6229 20.7316 31.8345C20.7316 34.046 18.9324 35.8451 16.721 35.8451ZM43.3146 16.1005V10.0536H51.5387L53.0504 16.1005H43.3146ZM43.3146 6.10478H50.2868C51.4096 6.10478 52.323 7.01822 52.323 8.14097V8.20262H43.3146L43.3146 6.10478ZM54.9723 16.1561L53.4415 10.0332C53.86 9.94431 54.174 9.57303 54.174 9.1282V8.14099C54.174 5.99754 52.4302 4.25378 50.2868 4.25378H43.3146V2.21747C43.3146 1.16272 42.4565 0.304688 41.4018 0.304688H5.8614C4.80665 0.304688 3.94862 1.16272 3.94862 2.21747V19.0004C3.94862 19.5115 4.36297 19.926 4.87418 19.926C5.38528 19.926 5.79974 19.5117 5.79974 19.0004V2.21747C5.79974 2.18341 5.82733 2.15582 5.86139 2.15582H41.4017C41.4357 2.15582 41.4633 2.18342 41.4633 2.21747V19.0007C41.4633 19.5118 41.8777 19.9262 42.3889 19.9262C42.9 19.9262 43.3144 19.5119 43.3144 19.0007V17.9515H54.2324C54.2334 17.9515 54.2341 17.9517 54.2349 17.9517C54.2358 17.9517 54.2366 17.9516 54.2374 17.9516C55.5809 17.9525 56.7217 18.8343 57.1135 20.0494H54.2356C53.7245 20.0494 53.31 20.4638 53.31 20.975V22.9494C53.31 24.5485 54.6109 25.8494 56.21 25.8494H57.259V29.9217H54.8389C54.0439 27.6262 51.8618 25.9727 49.2994 25.9727C46.737 25.9727 44.5547 27.6262 43.7599 29.9217H43.3142V22.9493C43.3142 22.4382 42.8999 22.0237 42.3887 22.0237C41.8776 22.0237 41.4631 22.4381 41.4631 22.9493V29.9215H22.2605C21.4655 27.626 19.2834 25.9725 16.721 25.9725C14.1586 25.9725 11.9763 27.626 11.1814 29.9215H5.86139C5.82733 29.9215 5.79974 29.8939 5.79974 29.8598V27.8236H9.81036C10.3215 27.8236 10.7359 27.4093 10.7359 26.8981C10.7359 26.3868 10.3216 25.9725 9.81036 25.9725H0.925316C0.414216 25.9725 -0.000244141 26.3868 -0.000244141 26.8981C-0.000244141 27.4093 0.414106 27.8236 0.925316 27.8236H3.94873V29.8598C3.94873 30.9146 4.80676 31.7726 5.86151 31.7726H10.861C10.8607 31.7931 10.8593 31.8136 10.8593 31.8342C10.8593 35.0664 13.4889 37.6959 16.721 37.6959C19.953 37.6959 22.5826 35.0664 22.5826 31.8342C22.5826 31.8135 22.5812 31.7931 22.581 31.7726H43.4394C43.4391 31.7931 43.4377 31.8136 43.4377 31.8342C43.4377 35.0664 46.0674 37.6959 49.2994 37.6959C52.5314 37.6959 55.161 35.0664 55.161 31.8342C55.161 31.8135 55.1596 31.7931 55.1594 31.7726H58.1845C58.6956 31.7726 59.1101 31.3582 59.1101 30.847V20.9748C59.1102 18.5374 57.3118 16.5123 54.9722 16.1561L54.9723 16.1561Z" fill="black"/>
</g>
</g>
<g id="Group 4038">
<g id="Group 4037">
<path id="Path 502" fill-rule="evenodd" clip-rule="evenodd" d="M16.7216 29.9235C15.6653 29.9235 14.8061 30.7806 14.8061 31.8341C14.8061 32.8876 15.6653 33.7447 16.7216 33.7447C17.7779 33.7447 18.6372 32.8876 18.6372 31.8341C18.6372 30.7806 17.7779 29.9235 16.7216 29.9235Z" fill="black"/>
</g>
</g>
<g id="Group 4040">
<g id="Group 4039">
<path id="Path 503" fill-rule="evenodd" clip-rule="evenodd" d="M49.2991 29.9235C48.2428 29.9235 47.3835 30.7806 47.3835 31.8341C47.3835 32.8876 48.2428 33.7447 49.2991 33.7447C50.3554 33.7447 51.2147 32.8876 51.2147 31.8341C51.2147 30.7806 50.3554 29.9235 49.2991 29.9235Z" fill="black"/>
</g>
</g>
<g id="Group 4042">
<g id="Group 4041">
<path id="Path 504" fill-rule="evenodd" clip-rule="evenodd" d="M38.4359 25.9755H24.6215C24.1106 25.9755 23.6964 26.3901 23.6964 26.9016C23.6964 27.4132 24.1105 27.8277 24.6215 27.8277H38.4359C38.9468 27.8277 39.3611 27.4132 39.3611 26.9016C39.3611 26.3901 38.9469 25.9755 38.4359 25.9755Z" fill="black"/>
</g>
</g>
<g id="Group 4044">
<g id="Group 4043">
<path id="Path 505" fill-rule="evenodd" clip-rule="evenodd" d="M14.7485 22.0273H2.90348C2.39246 22.0273 1.97806 22.4419 1.97806 22.9534C1.97806 23.465 2.39235 23.8796 2.90348 23.8796H14.7485C15.2595 23.8796 15.6739 23.465 15.6739 22.9534C15.6739 22.4419 15.2595 22.0273 14.7485 22.0273Z" fill="black"/>
</g>
</g>
<g id="Group 4046">
<g id="Group 4045">
<path id="Path 506" fill-rule="evenodd" clip-rule="evenodd" d="M32.1885 9.46014C31.8271 9.09892 31.2409 9.09892 30.8795 9.46026L22.6477 17.6878L18.3654 13.4077C18.0038 13.0464 17.4177 13.0464 17.0563 13.4077C16.6948 13.769 16.6948 14.3547 17.0563 14.7161L21.9932 19.6505C22.1739 19.8312 22.4109 19.9214 22.6477 19.9214C22.8845 19.9214 23.1215 19.8312 23.3021 19.6505L32.1884 10.7686C32.5499 10.4072 32.5499 9.8215 32.1885 9.46014Z" fill="black"/>
</g>
</g>
</g>
</svg>
