<svg width="25" height="33" viewBox="0 0 25 33" fill="none" xmlns="http://www.w3.org/2000/svg">
<g id="Icon">
<g id="Group 3537">
<path id="Path 2" fill-rule="evenodd" clip-rule="evenodd" d="M21.5695 29.8345C21.1855 30.2525 20.6615 30.4845 20.0915 30.4845H4.66311C4.09509 30.4845 3.5691 30.2525 3.18709 29.8325C2.80307 29.4125 2.62106 28.8705 2.67308 28.3025L4.29111 10.4841H6.37713V13.4842C6.37713 14.0362 6.82514 14.4842 7.37717 14.4842C7.92916 14.4842 8.37719 14.0362 8.37719 13.4842V10.4841H16.3774V13.4842C16.3774 14.0362 16.8254 14.4842 17.3773 14.4842C17.9294 14.4842 18.3774 14.0362 18.3774 13.4842V10.4841H20.4634L22.0835 28.3045C22.1355 28.8705 21.9535 29.4145 21.5695 29.8345V29.8345ZM8.37718 6.48441C8.37718 4.27836 10.1712 2.48432 12.3772 2.48432C13.4513 2.48432 14.4573 2.89833 15.2113 3.65035C15.9653 4.40236 16.3773 5.41039 16.3773 6.48441V8.48445H8.37718V6.48441ZM24.0776 28.123L22.3755 9.39457C22.3275 8.87856 21.8955 8.48455 21.3775 8.48455H18.3774V6.4845C18.3774 4.87647 17.7554 3.36644 16.6254 2.23641C15.4954 1.10639 13.9853 0.484375 12.3773 0.484375C9.06924 0.484375 6.37717 3.17643 6.37717 6.4845V8.48455H3.3771C2.85912 8.48455 2.4271 8.87856 2.38111 9.39457L0.679043 28.123C0.577041 29.239 0.953065 30.355 1.70907 31.183C2.46508 32.0111 3.54112 32.4851 4.66311 32.4851H20.0934C21.2155 32.4851 22.2915 32.0111 23.0475 31.183C23.8035 30.355 24.1776 29.239 24.0775 28.123H24.0776Z" fill="#4C4C4C"/>
</g>
</g>
</svg>
